<svg width="24" height="24" viewBox="0 0 24 24" fill="none" xmlns="http://www.w3.org/2000/svg">
<path d="M24 4.49996V19.5C24 20.3512 23.3512 21 22.5 21H21V7.38671L12 13.8517L3 7.38671V21H1.5C0.64875 21 0 20.3512 0 19.5V4.49996C0 4.07396 0.1605 3.69896 0.42975 3.43346C0.569903 3.29305 0.736897 3.18231 0.920773 3.10783C1.10465 3.03335 1.30164 2.99666 1.5 2.99996H2.00025L12 10.2502L21.9998 2.99996H22.5C22.926 2.99996 23.301 3.16046 23.5702 3.43346C23.8395 3.69896 24 4.07396 24 4.49996Z" fill="black"/>
</svg>
