<svg width="25" height="25" viewBox="0 0 25 25" fill="none" xmlns="http://www.w3.org/2000/svg">
<g clip-path="url(#clip0_2_9)">
<path fill-rule="evenodd" clip-rule="evenodd" d="M13.3096 0C8.72109 0 5 3.72012 5 8.30957C5 11.9809 7.38086 15.0957 10.6826 16.1943C11.0979 16.2713 11.2504 16.0141 11.2504 15.7945C11.2504 15.5965 11.2426 14.9418 11.2391 14.2477C8.92715 14.7502 8.43945 13.2672 8.43945 13.2672C8.06152 12.3066 7.5168 12.0512 7.5168 12.0512C6.76289 11.5355 7.57344 11.5461 7.57344 11.5461C8.40801 11.6047 8.84746 12.4025 8.84746 12.4025C9.58848 13.6729 10.7914 13.3055 11.2654 13.0932C11.3402 12.5561 11.5555 12.1893 11.7932 11.9818C9.94746 11.7719 8.00723 11.0592 8.00723 7.8752C8.00723 6.96797 8.33184 6.22676 8.86348 5.64473C8.77715 5.43535 8.49277 4.59004 8.94395 3.44551C8.94395 3.44551 9.6416 3.22246 11.2291 4.29766C11.8922 4.11348 12.6031 4.02109 13.3092 4.01797C14.0154 4.02129 14.7268 4.11367 15.3908 4.29766C16.9768 3.22266 17.6736 3.4457 17.6736 3.4457C18.126 4.59023 17.8416 5.43535 17.7553 5.64492C18.2881 6.22656 18.6104 6.96797 18.6104 7.87539C18.6104 11.0668 16.6664 11.7695 14.816 11.975C15.1141 12.2328 15.3797 12.7387 15.3797 13.5141C15.3797 14.6258 15.3703 15.5205 15.3703 15.7941C15.3703 16.0148 15.5199 16.2742 15.941 16.1926C19.241 15.0926 21.6187 11.9789 21.6187 8.30879C21.6191 3.72031 17.8988 0 13.3096 0Z" fill="#181616"/>
<path d="M8.14743 11.9305C8.12888 11.9719 8.06384 11.9842 8.00485 11.9559C7.94431 11.9285 7.91071 11.8725 7.93024 11.8309C7.94782 11.7887 8.01306 11.7768 8.07341 11.8051C8.13395 11.8324 8.16813 11.8891 8.14743 11.9305ZM8.48395 12.3063C8.44431 12.3428 8.36677 12.3258 8.31403 12.2676C8.25974 12.2096 8.24958 12.132 8.28981 12.0949C8.33044 12.0582 8.40563 12.0754 8.45973 12.1334C8.51442 12.192 8.52516 12.2688 8.48376 12.3061L8.48395 12.3063ZM8.81149 12.7844C8.76071 12.8199 8.67731 12.7867 8.62595 12.7127C8.57477 12.6391 8.57477 12.5506 8.62692 12.5149C8.67849 12.4793 8.76052 12.5113 8.81247 12.5846C8.86364 12.6598 8.86364 12.7484 8.81149 12.7844ZM9.26032 13.2469C9.21481 13.2971 9.11774 13.2836 9.04684 13.215C8.97419 13.1481 8.95407 13.0529 8.99958 13.0027C9.04587 12.9525 9.14333 12.9666 9.21481 13.0346C9.28708 13.1014 9.30895 13.1969 9.26032 13.2469ZM9.87985 13.5152C9.85954 13.5805 9.76618 13.61 9.67204 13.5824C9.5779 13.5539 9.51657 13.4777 9.53532 13.4121C9.55485 13.3465 9.64899 13.3158 9.74372 13.3453C9.83747 13.3734 9.89919 13.4488 9.87985 13.5152ZM10.5595 13.565C10.5621 13.6334 10.4822 13.6904 10.3834 13.6916C10.2841 13.694 10.2037 13.6385 10.2025 13.5709C10.2025 13.5018 10.2806 13.4455 10.3799 13.444C10.4787 13.442 10.5595 13.4971 10.5595 13.565ZM11.1924 13.4574C11.2041 13.5242 11.1357 13.593 11.0375 13.6111C10.941 13.6291 10.8519 13.5877 10.8394 13.5213C10.8277 13.4529 10.8974 13.3846 10.9937 13.3666C11.092 13.3494 11.1799 13.3895 11.1924 13.4574Z" fill="#181616"/>
<path d="M4.85452 21.1527H2.76467C2.73877 21.1527 2.71393 21.163 2.69562 21.1813C2.67731 21.1996 2.66702 21.2245 2.66702 21.2504V22.2722C2.66702 22.2981 2.67731 22.323 2.69562 22.3413C2.71393 22.3596 2.73877 22.3699 2.76467 22.3699H3.57971V23.6394C3.57971 23.6394 3.3967 23.7019 2.89026 23.7019C2.29338 23.7019 1.4592 23.484 1.4592 21.6496C1.4592 19.815 2.32795 19.5734 3.14358 19.5734C3.84944 19.5734 4.15335 19.6976 4.3471 19.7576C4.40764 19.776 4.46428 19.7154 4.46428 19.6615L4.69729 18.6742C4.69763 18.6594 4.6944 18.6448 4.68788 18.6315C4.68135 18.6183 4.67171 18.6068 4.65979 18.598C4.58108 18.5418 4.10178 18.2738 2.89065 18.2738C1.49534 18.2738 0.0640869 18.8672 0.0640869 21.7211C0.0640869 24.5746 1.70276 24.9998 3.08362 24.9998C4.22698 24.9998 4.92053 24.5111 4.92053 24.5111C4.94905 24.4955 4.95217 24.4554 4.95217 24.4369V21.2502C4.95217 21.2243 4.94188 21.1994 4.92357 21.1811C4.90526 21.1628 4.88042 21.1527 4.85452 21.1527ZM15.5285 18.5176H14.3516C14.3387 18.5176 14.326 18.5202 14.3142 18.5252C14.3024 18.5301 14.2916 18.5374 14.2826 18.5465C14.2735 18.5556 14.2664 18.5664 14.2615 18.5783C14.2567 18.5902 14.2542 18.603 14.2543 18.6158L14.2547 20.89H12.4203V18.6158C12.4204 18.603 12.418 18.5903 12.4131 18.5784C12.4083 18.5665 12.4012 18.5557 12.3921 18.5466C12.3831 18.5374 12.3724 18.5302 12.3606 18.5252C12.3488 18.5202 12.3361 18.5176 12.3233 18.5176H11.1465C11.1337 18.5176 11.121 18.5202 11.1091 18.5252C11.0973 18.5301 11.0865 18.5374 11.0775 18.5465C11.0685 18.5556 11.0613 18.5664 11.0565 18.5783C11.0516 18.5902 11.0492 18.603 11.0492 18.6158V24.774C11.0492 24.8281 11.093 24.8722 11.1465 24.8722H12.3233C12.3361 24.8722 12.3488 24.8696 12.3606 24.8646C12.3725 24.8596 12.3832 24.8523 12.3922 24.8432C12.4012 24.834 12.4084 24.8232 12.4132 24.8113C12.418 24.7994 12.4204 24.7866 12.4203 24.7738V22.1398H14.2547L14.2516 24.7738C14.2516 24.8281 14.2953 24.8722 14.3492 24.8722H15.5285C15.5414 24.8722 15.5541 24.8696 15.5659 24.8646C15.5777 24.8596 15.5885 24.8523 15.5975 24.8432C15.6065 24.834 15.6136 24.8232 15.6185 24.8113C15.6233 24.7994 15.6257 24.7866 15.6256 24.7738V18.6156C15.6257 18.6028 15.6233 18.59 15.6185 18.5782C15.6137 18.5663 15.6066 18.5554 15.5975 18.5463C15.5885 18.5372 15.5778 18.53 15.5659 18.525C15.5541 18.5201 15.5414 18.5176 15.5285 18.5176ZM6.31643 18.6576C5.89768 18.6576 5.55784 19 5.55784 19.4238C5.55784 19.847 5.89768 20.1904 6.31643 20.1904C6.73557 20.1904 7.07522 19.847 7.07522 19.4238C7.07522 19 6.73538 18.6576 6.31643 18.6576ZM6.89377 20.5342H5.72073C5.66682 20.5342 5.61877 20.5896 5.61877 20.6435V24.7162C5.61877 24.8359 5.69338 24.8715 5.78987 24.8715H6.84651C6.96272 24.8715 6.99104 24.8144 6.99104 24.7142V20.6324C6.99109 20.6196 6.98862 20.6069 6.98376 20.595C6.9789 20.5831 6.97175 20.5723 6.96271 20.5632C6.95368 20.5541 6.94295 20.5469 6.93112 20.5419C6.91929 20.537 6.9066 20.5342 6.89377 20.5342ZM20.0981 20.5433H18.9301C18.9173 20.5434 18.9046 20.5461 18.8928 20.5511C18.881 20.5561 18.8703 20.5633 18.8613 20.5725C18.8523 20.5816 18.8452 20.5925 18.8404 20.6043C18.8355 20.6162 18.8331 20.6289 18.8332 20.6418V23.6613C18.8332 23.6613 18.5364 23.8781 18.1155 23.8781C17.6946 23.8781 17.5828 23.6873 17.5828 23.275V20.6418C17.5829 20.6289 17.5805 20.6162 17.5757 20.6043C17.5709 20.5924 17.5637 20.5816 17.5547 20.5724C17.5457 20.5633 17.535 20.556 17.5231 20.551C17.5113 20.546 17.4986 20.5434 17.4858 20.5433H16.3006C16.2878 20.5434 16.275 20.546 16.2632 20.551C16.2513 20.5559 16.2406 20.5632 16.2315 20.5724C16.2225 20.5815 16.2154 20.5923 16.2105 20.6043C16.2057 20.6162 16.2032 20.6289 16.2033 20.6418V23.4742C16.2033 24.6988 16.886 24.9984 17.8248 24.9984C18.5951 24.9984 19.2162 24.5726 19.2162 24.5726C19.2162 24.5726 19.2455 24.7972 19.2592 24.8236C19.2729 24.8502 19.3074 24.8769 19.3451 24.8769L20.099 24.8736C20.1119 24.8736 20.1247 24.8711 20.1366 24.8661C20.1485 24.8611 20.1593 24.8539 20.1684 24.8447C20.1775 24.8356 20.1846 24.8247 20.1895 24.8128C20.1944 24.8008 20.1968 24.7881 20.1967 24.7752L20.1961 20.6412C20.196 20.6153 20.1857 20.5905 20.1674 20.5721C20.1491 20.5538 20.1244 20.5433 20.0985 20.5431L20.0981 20.5433ZM23.2899 20.4051C22.6266 20.4051 22.1754 20.701 22.1754 20.701V18.6156C22.1755 18.6028 22.173 18.5901 22.1682 18.5782C22.1634 18.5663 22.1562 18.5555 22.1472 18.5464C22.1382 18.5373 22.1275 18.53 22.1157 18.525C22.1039 18.52 22.0912 18.5174 22.0783 18.5174H20.8985C20.8856 18.5174 20.8728 18.5199 20.861 18.5248C20.8491 18.5298 20.8383 18.537 20.8292 18.5462C20.8201 18.5553 20.8129 18.5661 20.8081 18.578C20.8032 18.59 20.8007 18.6027 20.8008 18.6156V24.7738C20.8007 24.7867 20.8032 24.7994 20.8081 24.8114C20.8129 24.8233 20.8201 24.8341 20.8292 24.8432C20.8383 24.8524 20.8491 24.8596 20.861 24.8646C20.8728 24.8695 20.8856 24.872 20.8985 24.872H21.7172C21.7543 24.872 21.7821 24.8531 21.8026 24.8197C21.8227 24.7865 21.8522 24.5357 21.8522 24.5357C21.8522 24.5357 22.3346 24.9927 23.2483 24.9927C24.3205 24.9927 24.9358 24.449 24.9358 22.551C24.9358 20.6529 23.9533 20.4049 23.2897 20.4049L23.2899 20.4051ZM22.8289 23.8746C22.424 23.8623 22.1492 23.6785 22.1492 23.6785V21.7283C22.1492 21.7283 22.4203 21.5623 22.7528 21.5322C23.1733 21.4945 23.5785 21.6217 23.5785 22.6248C23.5785 23.6828 23.3959 23.8916 22.8291 23.8744L22.8289 23.8746ZM10.3897 23.8515C10.3383 23.8515 10.2067 23.8724 10.0713 23.8724C9.63772 23.8724 9.49065 23.6709 9.49065 23.4099V21.6783H10.3735C10.3864 21.6783 10.3991 21.6757 10.411 21.6708C10.4229 21.6658 10.4337 21.6586 10.4428 21.6494C10.4519 21.6403 10.459 21.6294 10.4639 21.6175C10.4688 21.6055 10.4712 21.5927 10.4711 21.5799V20.6314C10.4712 20.6186 10.4687 20.6058 10.4638 20.5939C10.4589 20.582 10.4517 20.5712 10.4427 20.5621C10.4336 20.553 10.4228 20.5458 10.4109 20.5408C10.3991 20.5359 10.3863 20.5334 10.3735 20.5334H9.49065L9.48928 19.3674C9.48928 19.323 9.46663 19.301 9.41545 19.301H8.21233C8.16584 19.301 8.14065 19.3217 8.14065 19.3664V20.5715C8.14065 20.5715 7.53772 20.717 7.49709 20.7287C7.47681 20.7346 7.45899 20.7469 7.44631 20.7638C7.43364 20.7807 7.42678 20.8013 7.42678 20.8224V21.5797C7.42671 21.5925 7.42915 21.6052 7.43399 21.6171C7.43883 21.629 7.44596 21.6398 7.45497 21.6489C7.46398 21.658 7.47471 21.6653 7.48653 21.6702C7.49834 21.6752 7.51103 21.6778 7.52385 21.6779H8.14065V23.4998C8.14065 24.8533 9.08987 24.9861 9.73049 24.9861C10.0229 24.9861 10.3731 24.8924 10.4309 24.8709C10.466 24.8578 10.4862 24.8217 10.4862 24.7824L10.4869 23.9494C10.4865 23.9236 10.4761 23.8989 10.4579 23.8806C10.4397 23.8623 10.4151 23.8518 10.3893 23.8513L10.3897 23.8515Z" fill="#100E0F"/>
</g>
<defs>
<clipPath id="clip0_2_9">
<rect width="25" height="25" fill="white"/>
</clipPath>
</defs>
</svg>
