<svg width="24" height="24" viewBox="0 0 24 24" fill="none" xmlns="http://www.w3.org/2000/svg">
<g clip-path="url(#clip0_2_16)">
<path d="M13.483 4.89053e-05C13.3018 0.00584198 13.1235 0.0475397 12.9586 0.122725C12.7936 0.197911 12.6452 0.305089 12.522 0.438049L7.11597 6.22605L3.26197 10.352C2.70168 10.9504 2.28783 11.6707 2.05297 12.456C2.00229 12.6247 1.96057 12.796 1.92797 12.969C1.77727 13.7516 1.79843 14.5575 1.98997 15.331C2.07563 15.6798 2.19243 16.0202 2.33897 16.348C2.64388 17.029 3.07517 17.6459 3.60997 18.166L7.88697 22.359L7.92597 22.397C10.174 24.562 13.778 24.5301 15.989 22.323L18.385 19.931C18.925 19.391 18.925 18.517 18.388 17.976C18.1296 17.717 17.7789 17.5712 17.4131 17.5707C17.0472 17.5701 16.6961 17.7148 16.437 17.973L14.041 20.365C13.4825 20.9166 12.7311 21.2291 11.9462 21.2362C11.1612 21.2433 10.4044 20.9445 9.83597 20.403L9.81597 20.3841L5.53997 16.191C4.88797 15.551 4.56797 14.722 4.59197 13.928C4.59686 13.752 4.61896 13.5768 4.65797 13.405C4.7587 12.9695 4.97217 12.5681 5.27697 12.241L9.12997 8.11405C10.188 6.98005 12.334 6.84405 13.56 7.83605L17.061 10.667C17.654 11.147 18.522 11.054 19.001 10.46C19.2306 10.1747 19.3377 9.80998 19.2989 9.44578C19.2601 9.08158 19.0785 8.74761 18.794 8.51705L15.294 5.68605C14.494 5.03905 13.528 4.64105 12.52 4.48405L14.535 2.32605C14.7207 2.12633 14.8433 1.87618 14.8874 1.60702C14.9314 1.33786 14.8949 1.06169 14.7825 0.813179C14.6701 0.564672 14.4868 0.354914 14.2556 0.210246C14.0244 0.0655789 13.7556 -0.00754814 13.483 4.89053e-05ZM10.617 12.815C10.4356 12.815 10.256 12.8508 10.0884 12.9203C9.92084 12.9898 9.76862 13.0916 9.64045 13.2199C9.51228 13.3483 9.41067 13.5007 9.34144 13.6683C9.2722 13.836 9.2367 14.0157 9.23697 14.197C9.2367 14.3784 9.2722 14.5581 9.34144 14.7258C9.41067 14.8934 9.51228 15.0458 9.64045 15.1741C9.76862 15.3025 9.92084 15.4043 10.0884 15.4738C10.256 15.5433 10.4356 15.579 10.617 15.579H20.79C20.9714 15.579 21.151 15.5433 21.3185 15.4738C21.4861 15.4043 21.6383 15.3025 21.7665 15.1741C21.8947 15.0458 21.9963 14.8934 22.0655 14.7258C22.1347 14.5581 22.1702 14.3784 22.17 14.197C22.1702 14.0157 22.1347 13.836 22.0655 13.6683C21.9963 13.5007 21.8947 13.3483 21.7665 13.2199C21.6383 13.0916 21.4861 12.9898 21.3185 12.9203C21.151 12.8508 20.9714 12.815 20.79 12.815H10.617Z" fill="black"/>
</g>
<defs>
<clipPath id="clip0_2_16">
<rect width="24" height="24" fill="white"/>
</clipPath>
</defs>
</svg>
